<svg width="20" height="20" viewBox="0 0 20 20" fill="none" xmlns="http://www.w3.org/2000/svg">
<g clip-path="url(#clip0_83_860)">
<path d="M14.1667 1.66675H5.83334C3.53215 1.66675 1.66667 3.53223 1.66667 5.83341V14.1667C1.66667 16.4679 3.53215 18.3334 5.83334 18.3334H14.1667C16.4679 18.3334 18.3333 16.4679 18.3333 14.1667V5.83341C18.3333 3.53223 16.4679 1.66675 14.1667 1.66675Z" stroke="#94A3B8" stroke-width="1.66667" stroke-linecap="round" stroke-linejoin="round"/>
<path d="M13.3333 9.47501C13.4362 10.1685 13.3177 10.8769 12.9948 11.4992C12.6719 12.1215 12.161 12.6262 11.5347 12.9414C10.9084 13.2566 10.1987 13.3663 9.50648 13.255C8.81427 13.1436 8.1748 12.8167 7.67903 12.321C7.18326 11.8252 6.85644 11.1857 6.74505 10.4935C6.63366 9.8013 6.74338 9.09159 7.0586 8.46532C7.37382 7.83905 7.87848 7.32812 8.50082 7.00521C9.12315 6.68229 9.83146 6.56383 10.525 6.66667C11.2324 6.77158 11.8874 7.10123 12.3931 7.60693C12.8988 8.11263 13.2284 8.76757 13.3333 9.47501Z" stroke="#94A3B8" stroke-width="1.66667" stroke-linecap="round" stroke-linejoin="round"/>
<path d="M14.5833 5.41675H14.5917" stroke="#94A3B8" stroke-width="1.66667" stroke-linecap="round" stroke-linejoin="round"/>
</g>
<defs>
<clipPath id="clip0_83_860">
<rect width="20" height="20" fill="white"/>
</clipPath>
</defs>
</svg>
