<svg width="56" height="56" viewBox="0 0 56 56" fill="none" xmlns="http://www.w3.org/2000/svg">
<path d="M32.6667 42V14C32.6667 12.7623 32.175 11.5753 31.2999 10.7001C30.4247 9.82498 29.2377 9.33331 28 9.33331H9.33335C8.09568 9.33331 6.90869 9.82498 6.03352 10.7001C5.15835 11.5753 4.66669 12.7623 4.66669 14V39.6666C4.66669 40.2855 4.91252 40.879 5.3501 41.3166C5.78769 41.7542 6.38118 42 7.00002 42H11.6667" stroke="white" stroke-width="4.66667" stroke-linecap="round" stroke-linejoin="round"/>
<path d="M35 42H21" stroke="white" stroke-width="4.66667" stroke-linecap="round" stroke-linejoin="round"/>
<path d="M44.3334 42H49C49.6189 42 50.2124 41.7542 50.6499 41.3166C51.0875 40.879 51.3334 40.2855 51.3334 39.6667V31.15C51.3324 30.6205 51.1514 30.107 50.82 29.694L42.7 19.544C42.4818 19.2707 42.2049 19.05 41.8899 18.8981C41.5749 18.7463 41.2297 18.6672 40.88 18.6667H32.6667" stroke="white" stroke-width="4.66667" stroke-linecap="round" stroke-linejoin="round"/>
<path d="M39.6667 46.6666C42.244 46.6666 44.3333 44.5773 44.3333 42C44.3333 39.4227 42.244 37.3333 39.6667 37.3333C37.0893 37.3333 35 39.4227 35 42C35 44.5773 37.0893 46.6666 39.6667 46.6666Z" stroke="white" stroke-width="4.66667" stroke-linecap="round" stroke-linejoin="round"/>
<path d="M16.3334 46.6666C18.9107 46.6666 21 44.5773 21 42C21 39.4227 18.9107 37.3333 16.3334 37.3333C13.756 37.3333 11.6667 39.4227 11.6667 42C11.6667 44.5773 13.756 46.6666 16.3334 46.6666Z" stroke="white" stroke-width="4.66667" stroke-linecap="round" stroke-linejoin="round"/>
</svg>
