<svg width="56" height="56" viewBox="0 0 56 56" fill="none" xmlns="http://www.w3.org/2000/svg">
<path d="M23.3333 4.66669H32.6666" stroke="white" stroke-width="4.66667" stroke-linecap="round" stroke-linejoin="round"/>
<path d="M49 18.6666L44.3333 23.3333L40.8333 14.7C40.5033 13.8164 39.9132 13.0536 39.1409 12.5121C38.3687 11.9706 37.4505 11.6758 36.5073 11.6666H19.6C18.6492 11.6448 17.7144 11.914 16.9208 12.4382C16.1272 12.9624 15.5127 13.7165 15.1597 14.5996L11.6667 23.3333L7 18.6666" stroke="white" stroke-width="4.66667" stroke-linecap="round" stroke-linejoin="round"/>
<path d="M16.3333 32.6667H16.3566" stroke="white" stroke-width="4.66667" stroke-linecap="round" stroke-linejoin="round"/>
<path d="M39.6667 32.6667H39.69" stroke="white" stroke-width="4.66667" stroke-linecap="round" stroke-linejoin="round"/>
<path d="M44.3333 23.3333H11.6667C9.08934 23.3333 7 25.4227 7 28V37.3333C7 39.9106 9.08934 42 11.6667 42H44.3333C46.9107 42 49 39.9106 49 37.3333V28C49 25.4227 46.9107 23.3333 44.3333 23.3333Z" stroke="white" stroke-width="4.66667" stroke-linecap="round" stroke-linejoin="round"/>
<path d="M11.6667 42V46.6667" stroke="white" stroke-width="4.66667" stroke-linecap="round" stroke-linejoin="round"/>
<path d="M44.3333 42V46.6667" stroke="white" stroke-width="4.66667" stroke-linecap="round" stroke-linejoin="round"/>
</svg>
