<svg width="56" height="56" viewBox="0 0 56 56" fill="none" xmlns="http://www.w3.org/2000/svg">
<path d="M44.3333 39.6666H49C50.4 39.6666 51.3333 38.7333 51.3333 37.3333V30.3333C51.3333 28.2333 49.7 26.3666 47.8333 25.9C43.6333 24.7333 37.3333 23.3333 37.3333 23.3333C37.3333 23.3333 34.3 20.0666 32.2 17.9666C31.0333 17.0333 29.6333 16.3333 28 16.3333H11.6667C10.2667 16.3333 9.1 17.2666 8.4 18.4333L5.13333 25.2C4.82435 26.1012 4.66666 27.0473 4.66666 28V37.3333C4.66666 38.7333 5.6 39.6666 7 39.6666H11.6667" stroke="white" stroke-width="4.66667" stroke-linecap="round" stroke-linejoin="round"/>
<path d="M16.3333 44.3333C18.9107 44.3333 21 42.244 21 39.6667C21 37.0893 18.9107 35 16.3333 35C13.756 35 11.6667 37.0893 11.6667 39.6667C11.6667 42.244 13.756 44.3333 16.3333 44.3333Z" stroke="white" stroke-width="4.66667" stroke-linecap="round" stroke-linejoin="round"/>
<path d="M21 39.6667H35" stroke="white" stroke-width="4.66667" stroke-linecap="round" stroke-linejoin="round"/>
<path d="M39.6667 44.3333C42.244 44.3333 44.3333 42.244 44.3333 39.6667C44.3333 37.0893 42.244 35 39.6667 35C37.0893 35 35 37.0893 35 39.6667C35 42.244 37.0893 44.3333 39.6667 44.3333Z" stroke="white" stroke-width="4.66667" stroke-linecap="round" stroke-linejoin="round"/>
</svg>
