<svg width="232" height="20" viewBox="0 0 232 20" fill="none" xmlns="http://www.w3.org/2000/svg">
<path d="M15 1.6665H12.5C11.3949 1.6665 10.3351 2.10549 9.55372 2.88689C8.77232 3.66829 8.33333 4.7281 8.33333 5.83317V8.33317H5.83333V11.6665H8.33333V18.3332H11.6667V11.6665H14.1667L15 8.33317H11.6667V5.83317C11.6667 5.61216 11.7545 5.4002 11.9107 5.24391C12.067 5.08763 12.279 4.99984 12.5 4.99984H15V1.6665Z" stroke="#94A3B8" stroke-width="1.66667" stroke-linecap="round" stroke-linejoin="round"/>
<path d="M50.1667 1.6665H41.8333C39.5321 1.6665 37.6667 3.53198 37.6667 5.83317V14.1665C37.6667 16.4677 39.5321 18.3332 41.8333 18.3332H50.1667C52.4679 18.3332 54.3333 16.4677 54.3333 14.1665V5.83317C54.3333 3.53198 52.4679 1.6665 50.1667 1.6665Z" stroke="#94A3B8" stroke-width="1.66667" stroke-linecap="round" stroke-linejoin="round"/>
<path d="M49.3333 9.47476C49.4362 10.1683 49.3177 10.8766 48.9948 11.4989C48.6719 12.1213 48.161 12.6259 47.5347 12.9412C46.9084 13.2564 46.1987 13.3661 45.5065 13.2547C44.8143 13.1433 44.1748 12.8165 43.679 12.3207C43.1833 11.825 42.8564 11.1855 42.7451 10.4933C42.6337 9.80106 42.7434 9.09134 43.0586 8.46507C43.3738 7.83881 43.8785 7.32788 44.5008 7.00496C45.1231 6.68205 45.8315 6.56359 46.525 6.66643C47.2324 6.77133 47.8874 7.10098 48.3931 7.60669C48.8988 8.11239 49.2284 8.76733 49.3333 9.47476Z" stroke="#94A3B8" stroke-width="1.66667" stroke-linecap="round" stroke-linejoin="round"/>
<path d="M50.5833 5.4165H50.5917" stroke="#94A3B8" stroke-width="1.66667" stroke-linecap="round" stroke-linejoin="round"/>
<path d="M90.3333 3.33319C90.3333 3.33319 89.75 5.08319 88.6667 6.16652C90 14.4999 80.8333 20.5832 73.6667 15.8332C75.5 15.9165 77.3333 15.3332 78.6667 14.1665C74.5 12.9165 72.4167 7.99986 74.5 4.16652C76.3333 6.33319 79.1667 7.58319 82 7.49986C81.25 3.99986 85.3333 1.99986 87.8333 4.33319C88.75 4.33319 90.3333 3.33319 90.3333 3.33319Z" stroke="#94A3B8" stroke-width="1.66667" stroke-linecap="round" stroke-linejoin="round"/>
</svg>
