<svg width="52" height="20" viewBox="0 0 52 20" fill="none" xmlns="http://www.w3.org/2000/svg">
<path d="M15.0002 1.66667H12.5002C11.3951 1.66667 10.3353 2.10565 9.55388 2.88705C8.77248 3.66846 8.3335 4.72826 8.3335 5.83333V8.33333H5.8335V11.6667H8.3335V18.3333H11.6668V11.6667H14.1668L15.0002 8.33333H11.6668V5.83333C11.6668 5.61232 11.7546 5.40036 11.9109 5.24408C12.0672 5.0878 12.2791 5 12.5002 5H15.0002V1.66667Z" stroke="#64748B" stroke-width="1.66667" stroke-linecap="round" stroke-linejoin="round"/>
<g clip-path="url(#clip0_1_2954)">
<path d="M46.1665 1.66667H37.8332C35.532 1.66667 33.6665 3.53215 33.6665 5.83333V14.1667C33.6665 16.4679 35.532 18.3333 37.8332 18.3333H46.1665C48.4677 18.3333 50.3332 16.4679 50.3332 14.1667V5.83333C50.3332 3.53215 48.4677 1.66667 46.1665 1.66667Z" stroke="#64748B" stroke-width="1.66667" stroke-linecap="round" stroke-linejoin="round"/>
<path d="M45.3333 9.475C45.4361 10.1685 45.3176 10.8768 44.9947 11.4992C44.6718 12.1215 44.1609 12.6262 43.5346 12.9414C42.9083 13.2566 42.1986 13.3663 41.5064 13.2549C40.8142 13.1436 40.1747 12.8167 39.679 12.321C39.1832 11.8252 38.8564 11.1857 38.745 10.4935C38.6336 9.80129 38.7433 9.09158 39.0585 8.46531C39.3737 7.83904 39.8784 7.32812 40.5007 7.0052C41.1231 6.68228 41.8314 6.56382 42.5249 6.66667C43.2324 6.77157 43.8873 7.10122 44.393 7.60692C44.8987 8.11262 45.2283 8.76756 45.3333 9.475Z" stroke="#64748B" stroke-width="1.66667" stroke-linecap="round" stroke-linejoin="round"/>
<path d="M46.5835 5.41667H46.5918" stroke="#64748B" stroke-width="1.66667" stroke-linecap="round" stroke-linejoin="round"/>
</g>
<defs>
<clipPath id="clip0_1_2954">
<rect width="20" height="20" fill="white" transform="translate(32)"/>
</clipPath>
</defs>
</svg>
